<?xml version="1.0" standalone="no"?>
<!DOCTYPE svg PUBLIC "-//W3C//DTD SVG 20010904//EN"
 "http://www.w3.org/TR/2001/REC-SVG-20010904/DTD/svg10.dtd">
<svg version="1.0" xmlns="http://www.w3.org/2000/svg"
 width="25px" height="25px" viewBox="0 0 512.000000 512.000000"
 preserveAspectRatio="xMidYMid meet">

<g transform="translate(0.000000,512.000000) scale(0.100000,-0.100000)"
fill="#000000" stroke="none">
<path d="M1263 4476 l-28 -24 0 -1892 0 -1892 28 -24 c38 -33 96 -33 134 0
l28 24 3 1887 2 1886 -29 30 c-39 38 -97 40 -138 5z"/>
<path d="M3723 4476 l-28 -24 -3 -1887 -2 -1886 29 -30 c39 -38 97 -40 138 -5
l28 24 0 1892 0 1892 -28 24 c-38 33 -96 33 -134 0z"/>
<path d="M661 3564 c-52 -37 -51 -14 -51 -996 0 -595 4 -926 10 -950 22 -78
103 -102 162 -49 l33 29 0 962 0 962 -33 29 c-37 33 -84 38 -121 13z"/>
<path d="M4338 3551 l-33 -29 0 -962 0 -962 33 -29 c37 -33 84 -38 121 -13 52
37 51 14 51 996 0 595 -4 926 -10 950 -22 78 -103 102 -162 49z"/>
<path d="M1900 3468 c-14 -7 -33 -29 -42 -48 -17 -32 -18 -95 -18 -860 0 -765
1 -828 18 -860 34 -68 121 -77 166 -17 21 28 21 31 21 883 l0 854 -26 25 c-30
30 -84 41 -119 23z"/>
<path d="M3130 3468 c-14 -7 -33 -29 -43 -48 -16 -33 -17 -90 -15 -877 l3
-841 24 -26 c50 -53 131 -41 163 24 17 32 18 94 18 858 0 862 0 865 -43 900
-23 19 -79 24 -107 10z"/>
<path d="M74 2963 c-12 -2 -32 -15 -45 -29 l-24 -26 0 -349 0 -349 27 -27 c48
-47 146 -28 162 32 3 11 6 170 6 352 l0 333 -27 29 c-29 31 -61 42 -99 34z"/>
<path d="M2524 2961 c-12 -5 -31 -22 -43 -37 -21 -26 -21 -35 -21 -365 l0
-339 29 -32 c24 -27 36 -33 71 -33 35 0 47 6 71 33 l29 32 0 340 0 340 -27 30
c-30 32 -75 45 -109 31z"/>
<path d="M4990 2962 c-9 -4 -27 -15 -40 -25 l-25 -17 -3 -350 -3 -349 30 -33
c25 -28 36 -33 71 -32 31 1 49 8 69 28 l26 26 0 350 0 350 -25 25 c-26 26 -75
39 -100 27z"/>
</g>
</svg>
