<?xml version="1.0" encoding="utf-8"?>
<!-- Generator: Adobe Illustrator 26.0.3, SVG Export Plug-In . SVG Version: 6.00 Build 0)  -->
<svg version="1.0" id="katman_1" xmlns="http://www.w3.org/2000/svg" xmlns:xlink="http://www.w3.org/1999/xlink" x="0px" y="0px"
	 viewBox="0 0 600 450" style="enable-background:new 0 0 600 450;" xml:space="preserve">
<style type="text/css">
	.st0{fill:#517BBD;}
	.st1{fill:#E84336;}
	.st2{fill:#FBBC0A;}
	.st3{fill:#31A853;}
	.st4{fill:#5F6369;}
</style>
<g>
	<path class="st0" d="M106.4,214.2v8.3h19.9c-0.6,4.7-2.2,8.1-4.5,10.5c-2.9,2.9-7.5,6.1-15.4,6.1c-12.3,0-21.9-9.9-21.9-22.2
		c0-12.3,9.6-22.2,21.9-22.2c6.6,0,11.5,2.6,15,6l5.9-5.9c-5-4.8-11.6-8.5-20.9-8.5c-16.8,0-31,13.7-31,30.5s14.1,30.5,31,30.5
		c9.1,0,15.9-3,21.3-8.5c5.5-5.5,7.2-13.3,7.2-19.5c0-1.9-0.1-3.7-0.4-5.2C134.4,214.2,106.4,214.2,106.4,214.2z"/>
	<path class="st1" d="M159.8,207.4c-10.9,0-19.8,8.3-19.8,19.7c0,11.3,8.9,19.7,19.8,19.7c10.9,0,19.8-8.3,19.8-19.7
		C179.6,215.6,170.7,207.4,159.8,207.4z M159.8,239c-6,0-11.1-4.9-11.1-11.9c0-7.1,5.2-11.9,11.1-11.9s11.1,4.9,11.1,11.9
		C170.9,234.1,165.8,239,159.8,239z"/>
	<path class="st0" d="M256.8,211.8h-0.3c-1.9-2.3-5.7-4.4-10.4-4.4c-9.8,0-18.4,8.6-18.4,19.7c0,11.1,8.6,19.7,18.4,19.7
		c4.7,0,8.4-2.1,10.4-4.5h0.3v2.7c0,7.5-4,11.6-10.5,11.6c-5.3,0-8.6-3.8-9.9-7l-7.5,3.1c2.2,5.2,7.9,11.6,17.5,11.6
		c10.1,0,18.7-6,18.7-20.5v-35.4h-8.2V211.8z M246.8,239c-6,0-10.5-5.1-10.5-11.9c0-7,4.5-11.9,10.5-11.9c5.9,0,10.5,5.1,10.5,12
		C257.4,234,252.7,239,246.8,239z"/>
	<path class="st2" d="M203.9,207.4c-10.9,0-19.8,8.3-19.8,19.7c0,11.3,8.9,19.7,19.8,19.7c10.9,0,19.8-8.3,19.8-19.7
		C223.7,215.6,214.8,207.4,203.9,207.4z M203.9,239c-6,0-11.1-4.9-11.1-11.9c0-7.1,5.2-11.9,11.1-11.9c6,0,11.1,4.9,11.1,11.9
		C215,234.1,209.9,239,203.9,239z"/>
	<path class="st3" d="M271.8,187.2h8.5v59.6h-8.5L271.8,187.2z"/>
	<path class="st1" d="M306.6,239c-4.4,0-7.5-2-9.6-6l26.4-10.9l-0.9-2.2c-1.6-4.4-6.7-12.6-16.9-12.6c-10.1,0-18.6,8-18.6,19.7
		c0,11.1,8.3,19.7,19.5,19.7c9,0,14.2-5.5,16.4-8.7l-6.7-4.5C314,236.9,311,239,306.6,239L306.6,239z M305.9,214.8
		c3.5,0,6.5,1.8,7.5,4.3l-17.8,7.4C295.6,218.2,301.5,214.8,305.9,214.8z"/>
	<path class="st4" d="M347.9,247.2v-54h8.4l26.3,42h0.3l-0.3-10.4v-31.6h6.9v54h-7.2l-27.5-44.1h-0.3l0.3,10.4v33.6H347.9z
		 M416,248.5c-5.6,0-10.1-1.9-13.6-5.6c-3.5-3.7-5.2-8.4-5.2-14.1c0-5.4,1.7-10,5.1-13.9c3.4-3.9,7.7-5.8,13-5.8
		c5.5,0,9.9,1.8,13.2,5.4c3.3,3.6,4.9,8.4,4.9,14.3l-0.1,1.3h-29.2c0.2,3.7,1.4,6.7,3.7,8.8c2.3,2.2,5,3.2,8,3.2
		c5,0,8.3-2.1,10.1-6.3l6.2,2.6c-1.2,2.9-3.2,5.3-6,7.2C423.4,247.5,420,248.5,416,248.5L416,248.5z M426,224.3
		c-0.2-2.1-1.1-4.1-2.9-6c-1.8-1.9-4.4-2.9-8-2.9c-2.6,0-4.8,0.8-6.7,2.4c-1.9,1.6-3.2,3.8-3.9,6.5H426z M480.1,247.2H473l-9.2-28.4
		l-9.1,28.4h-7l-11.9-37h7.2l8.2,27.9h0.1l9.1-27.9h7.2l9.1,27.9h0.1l8.1-27.9h7.1L480.1,247.2L480.1,247.2z M510.3,248.5
		c-4.1,0-7.5-1-10.2-3c-2.6-1.9-4.7-4.5-5.9-7.5l6.2-2.6c2,4.6,5.3,6.9,10,6.9c2.2,0,3.9-0.5,5.3-1.4c1.4-1,2.1-2.2,2.1-3.8
		c0-2.4-1.7-4-5.1-4.9l-7.5-1.8c-2.4-0.6-4.6-1.7-6.7-3.4c-2.1-1.7-3.2-4-3.2-6.8c0-3.3,1.4-5.9,4.3-8c2.9-2,6.3-3.1,10.3-3.1
		c3.3,0,6.2,0.7,8.8,2.2c2.5,1.4,4.5,3.7,5.5,6.4l-6,2.5c-1.4-3.3-4.2-4.9-8.5-4.9c-2.1,0-3.8,0.4-5.2,1.3c-1.4,0.9-2.1,2-2.1,3.5
		c0,2.1,1.6,3.5,4.9,4.3l7.3,1.7c3.5,0.8,6,2.2,7.7,4.1c1.7,2,2.5,4.2,2.5,6.6c0,3.3-1.4,6.1-4.1,8.3
		C518.1,247.4,514.6,248.5,510.3,248.5z"/>
</g>
</svg>
